<svg width="14" height="14" viewBox="0 0 14 14" fill="none" xmlns="http://www.w3.org/2000/svg">
<path d="M10.8 8.80005C9.69548 8.80005 8.80005 9.69548 8.80005 10.8C8.80005 11.9046 9.69548 12.8 10.8 12.8C11.9046 12.8 12.8 11.9046 12.8 10.8C12.8 9.69548 11.9046 8.80005 10.8 8.80005ZM10.8 8.80005L10.8 4.13338C10.8 3.77976 10.6596 3.44062 10.4095 3.19057C10.1595 2.94052 9.82034 2.80005 9.46672 2.80005H7.46672M2.80005 4.80005C3.90462 4.80005 4.80005 3.90462 4.80005 2.80005C4.80005 1.69548 3.90462 0.800049 2.80005 0.800049C1.69548 0.800049 0.800049 1.69548 0.800049 2.80005C0.800049 3.90462 1.69548 4.80005 2.80005 4.80005ZM2.80005 4.80005L2.80005 12.8" stroke="#1E1E1E" stroke-width="1.6" stroke-linecap="round" stroke-linejoin="round"/>
</svg>
