<svg width="16" height="16" viewBox="0 0 16 16" fill="none" xmlns="http://www.w3.org/2000/svg">
<g clip-path="url(#clip0_9_3812)">
<path d="M8.93329 1.33334H3.99996C3.64634 1.33334 3.3072 1.47382 3.05715 1.72387C2.8071 1.97392 2.66663 2.31305 2.66663 2.66668V13.3333C2.66663 13.687 2.8071 14.0261 3.05715 14.2762C3.3072 14.5262 3.64634 14.6667 3.99996 14.6667H12C12.3536 14.6667 12.6927 14.5262 12.9428 14.2762C13.1928 14.0261 13.3333 13.687 13.3333 13.3333V8.40001" stroke="#F5F5F5" stroke-width="1.5" stroke-linecap="round" stroke-linejoin="round"/>
<path d="M14.2519 3.75065C14.5175 3.48508 14.6667 3.12489 14.6667 2.74932C14.6667 2.37375 14.5175 2.01356 14.2519 1.74799C13.9864 1.48242 13.6262 1.33322 13.2506 1.33322C12.875 1.33322 12.5148 1.48242 12.2493 1.74799L8.90928 5.08932C8.75078 5.24773 8.63476 5.44354 8.57194 5.65865L8.01394 7.57199C7.99721 7.62935 7.99621 7.69016 8.01104 7.74805C8.02587 7.80593 8.05599 7.85877 8.09824 7.90102C8.1405 7.94328 8.19333 7.97339 8.25122 7.98822C8.3091 8.00306 8.36991 8.00205 8.42728 7.98532L10.3406 7.42732C10.5557 7.36451 10.7515 7.24849 10.9099 7.08999L14.2519 3.75065Z" stroke="#F3F3F3" stroke-width="1.5" stroke-linecap="round" stroke-linejoin="round"/>
</g>
<defs>
<clipPath id="clip0_9_3812">
<rect width="16" height="16" fill="white"/>
</clipPath>
</defs>
</svg>
