<svg width="16" height="14" viewBox="0 0 16 14" fill="none" xmlns="http://www.w3.org/2000/svg">
<path d="M10.6666 12.8V11.4667C10.6666 10.7595 10.3857 10.0812 9.88558 9.5811C9.38548 9.081 8.7072 8.80005 7.99996 8.80005H3.33329C2.62605 8.80005 1.94777 9.081 1.44767 9.5811C0.947578 10.0812 0.666626 10.7595 0.666626 11.4667V12.8M13.3333 4.13338V8.13338M15.3333 6.13338H11.3333M8.33329 3.46672C8.33329 4.93947 7.13939 6.13338 5.66663 6.13338C4.19387 6.13338 2.99996 4.93947 2.99996 3.46672C2.99996 1.99396 4.19387 0.800049 5.66663 0.800049C7.13939 0.800049 8.33329 1.99396 8.33329 3.46672Z" stroke="#1E1E1E" stroke-width="1.6" stroke-linecap="round" stroke-linejoin="round"/>
</svg>
