<svg width="32" height="38" viewBox="0 0 32 38" fill="none" xmlns="http://www.w3.org/2000/svg">
<path d="M16.3341 9.46539L8.25172 4.79903L15.8569 0.408203L23.9392 5.07457L16.3341 9.46539Z" stroke="#1E1E1E" stroke-width="0.816402" stroke-linejoin="round"/>
<path d="M8.26484 4.78906L2.2779 12.5857L16.0207 20.9266L16.3608 9.44255" stroke="#1E1E1E" stroke-width="0.816402" stroke-linejoin="round"/>
<path d="M5.28664 14.5447L2.29356 16.2727C6.91971 18.9896 16.2046 24.4147 16.3353 24.3797C16.4659 24.3447 25.606 19.0441 30.1597 16.3982L26.9493 14.5447" stroke="#1E1E1E" stroke-width="0.816402" stroke-linejoin="round"/>
<path d="M2.30468 16.3003V20.8585L16.2515 28.9108L30.144 20.7328V16.3955" stroke="#1E1E1E" stroke-width="0.816402" stroke-linejoin="round"/>
<path d="M5.28664 22.6003L2.29356 24.3284C6.91971 27.0453 16.2046 32.4704 16.3353 32.4354C16.4659 32.4004 25.606 27.0998 30.1597 24.4539L26.9493 22.6003" stroke="#1E1E1E" stroke-width="0.816402" stroke-linejoin="round"/>
<path d="M2.30468 24.3547V28.913L16.2515 36.9652L30.4161 28.7873V24.45" stroke="#1E1E1E" stroke-width="0.816402" stroke-linecap="round" stroke-linejoin="round"/>
<path d="M16.3211 24.2737V28.8183" stroke="#1E1E1E" stroke-width="0.816402" stroke-linejoin="round"/>
<path d="M16.0492 20.9539L30.1457 12.5857L23.9683 5.15649" stroke="#1E1E1E" stroke-width="0.816402" stroke-linejoin="round"/>
<path d="M15.8728 0.489502V5.18381L12.4847 7.13991" stroke="#1E1E1E" stroke-width="0.816402" stroke-linejoin="round"/>
<path d="M15.9001 5.18286L19.7372 7.39821" stroke="#1E1E1E" stroke-width="0.816402" stroke-linejoin="round"/>
<path d="M16.5293 24.7268L29.9997 16.5408L29.9997 20.5408L16.5294 28.7166L16.5293 24.7268Z" fill="#1E1E1E"/>
<path d="M16.5293 32.1356L30.2092 24.7256L30.2092 28.7155L16.5292 36.6957L16.5293 32.1356Z" fill="#1E1E1E"/>
<path d="M2.2779 24.1555L17.0978 32.7054L16.5278 36.6955L2.33429 29.0083L2.2779 24.1555Z" fill="#1E1E1E"/>
<path d="M2.18037 16.1755L17.0002 24.7254L16.4303 28.7155L2.23677 21.0283L2.18037 16.1755Z" fill="#1E1E1E"/>
<path d="M2.2779 12.3782L7.97787 4.96826L16.5278 9.52824L23.9378 4.96826L30.2078 12.3782L15.9578 20.9282L2.2779 12.3782Z" fill="#1E1E1E"/>
</svg>
