<svg width="41" height="53" viewBox="0 0 41 53" fill="none" xmlns="http://www.w3.org/2000/svg">
<path d="M20.3635 13.3267L8.98398 6.75672L19.6915 0.574707L31.071 7.14465L20.3635 13.3267Z" stroke="white" stroke-width="1.14944" stroke-linejoin="round"/>
<path d="M9.00398 6.74219L0.574738 17.7194L19.9237 29.4628L20.4026 13.294" stroke="white" stroke-width="1.14944" stroke-linejoin="round"/>
<path d="M4.80918 20.4778L0.595123 22.9108C7.10844 26.736 20.1811 34.3742 20.365 34.3249C20.5489 34.2756 33.4175 26.8127 39.8289 23.0874L35.3089 20.4778" stroke="white" stroke-width="1.14944" stroke-linejoin="round"/>
<path d="M0.612366 22.9492V29.3669L20.2487 40.704L39.8084 29.19V23.0833" stroke="white" stroke-width="1.14944" stroke-linejoin="round"/>
<path d="M4.80918 31.8188L0.595123 34.2518C7.10844 38.0771 20.1811 45.7152 20.365 45.666C20.5489 45.6167 33.4175 38.1538 39.8289 34.4285L35.3089 31.8188" stroke="white" stroke-width="1.14944" stroke-linejoin="round"/>
<path d="M0.612366 34.29V40.7078L20.2487 52.0448L40.1915 40.5308V34.4241" stroke="white" stroke-width="1.14944" stroke-linejoin="round"/>
<path d="M20.3446 34.176V40.5746" stroke="white" stroke-width="1.14944" stroke-linejoin="round"/>
<path d="M19.9622 29.5015L39.8092 17.7197L31.1118 7.25977" stroke="white" stroke-width="1.14944" stroke-linejoin="round"/>
<path d="M19.7135 0.688721V7.29802L14.9433 10.0521" stroke="white" stroke-width="1.14944" stroke-linejoin="round"/>
<path d="M19.7522 7.29785L25.1545 10.4169" stroke="white" stroke-width="1.14944" stroke-linejoin="round"/>
</svg>
